<svg width="345" height="103" viewBox="0 0 345 103" fill="none" xmlns="http://www.w3.org/2000/svg">
<path d="M121 51.5C121 65.1586 126.426 78.2579 136.084 87.916C145.742 97.5741 158.841 103 172.5 103C186.159 103 199.258 97.5741 208.916 87.916C218.574 78.2579 224 65.1587 224 51.5L172.5 51.5L121 51.5Z" fill="url(#paint0_linear_1009_1378)"/>
<rect width="345" height="57" transform="translate(0 22)" fill="white"/>
<path d="M106.04 61H101.851V44.1982H95.5371V39.9941H112.339V44.1982H106.04V61ZM126.284 52.6064V48.4023C126.284 47.8262 126.172 47.2842 125.947 46.7764C125.732 46.2588 125.435 45.8096 125.054 45.4287C124.673 45.0479 124.224 44.75 123.706 44.5352C123.198 44.3105 122.656 44.1982 122.08 44.1982C121.504 44.1982 120.957 44.3105 120.439 44.5352C119.932 44.75 119.487 45.0479 119.106 45.4287C118.726 45.8096 118.423 46.2588 118.198 46.7764C117.983 47.2842 117.876 47.8262 117.876 48.4023V52.6064H126.284ZM130.488 61H126.284V56.7959H117.876V61H113.687V48.4023C113.687 47.2402 113.906 46.1514 114.346 45.1357C114.785 44.1104 115.381 43.2168 116.133 42.4551C116.895 41.6934 117.783 41.0928 118.799 40.6533C119.824 40.2139 120.918 39.9941 122.08 39.9941C123.242 39.9941 124.331 40.2139 125.347 40.6533C126.372 41.0928 127.266 41.6934 128.027 42.4551C128.789 43.2168 129.39 44.1104 129.829 45.1357C130.269 46.1514 130.488 47.2402 130.488 48.4023V61ZM132.905 46.293C132.905 45.4238 133.071 44.6084 133.403 43.8467C133.735 43.085 134.185 42.4209 134.751 41.8545C135.327 41.2783 135.996 40.8242 136.758 40.4922C137.52 40.1602 138.335 39.9941 139.204 39.9941H148.843V44.1982H139.204C138.911 44.1982 138.638 44.252 138.384 44.3594C138.13 44.4668 137.905 44.6182 137.71 44.8135C137.524 44.999 137.378 45.2188 137.271 45.4727C137.163 45.7266 137.109 46 137.109 46.293C137.109 46.5859 137.163 46.8643 137.271 47.1279C137.378 47.3818 137.524 47.6064 137.71 47.8018C137.905 47.9873 138.13 48.1338 138.384 48.2412C138.638 48.3486 138.911 48.4023 139.204 48.4023H143.408C144.277 48.4023 145.093 48.5684 145.854 48.9004C146.626 49.2227 147.295 49.6719 147.861 50.248C148.438 50.8145 148.887 51.4834 149.209 52.2549C149.541 53.0166 149.707 53.832 149.707 54.7012C149.707 55.5703 149.541 56.3857 149.209 57.1475C148.887 57.9092 148.438 58.5781 147.861 59.1543C147.295 59.7207 146.626 60.1699 145.854 60.502C145.093 60.834 144.277 61 143.408 61H134.077V56.7959H143.408C143.701 56.7959 143.975 56.7422 144.229 56.6348C144.482 56.5273 144.702 56.3809 144.888 56.1953C145.083 56 145.234 55.7754 145.342 55.5215C145.449 55.2676 145.503 54.9941 145.503 54.7012C145.503 54.4082 145.449 54.1348 145.342 53.8809C145.234 53.627 145.083 53.4072 144.888 53.2217C144.702 53.0264 144.482 52.875 144.229 52.7676C143.975 52.6602 143.701 52.6064 143.408 52.6064H139.204C138.335 52.6064 137.52 52.4404 136.758 52.1084C135.996 51.7764 135.327 51.3271 134.751 50.7607C134.185 50.1846 133.735 49.5156 133.403 48.7539C133.071 47.9824 132.905 47.1621 132.905 46.293ZM156.68 61H152.476V39.9941H156.68V50.4971L164.502 39.9941H169.277L162.642 48.8564L169.277 61H164.502L159.888 52.5039L156.68 56.7959V61ZM182.388 48.4023V52.3867H170.083V48.4023H182.388ZM206.982 54.9941C206.982 55.8633 206.816 56.6836 206.484 57.4551C206.162 58.2168 205.713 58.8857 205.137 59.4619C204.57 60.0283 203.901 60.4775 203.13 60.8096C202.368 61.1318 201.553 61.293 200.684 61.293C199.902 61.293 199.15 61.1562 198.428 60.8828C197.715 60.6094 197.07 60.209 196.494 59.6816C195.918 60.209 195.269 60.6094 194.546 60.8828C193.823 61.1562 193.071 61.293 192.29 61.293C191.421 61.293 190.601 61.1318 189.829 60.8096C189.067 60.4775 188.398 60.0283 187.822 59.4619C187.256 58.8857 186.807 58.2168 186.475 57.4551C186.152 56.6836 185.991 55.8633 185.991 54.9941V39.9941H190.195V54.9941C190.195 55.2871 190.249 55.5654 190.356 55.8291C190.464 56.083 190.61 56.3076 190.796 56.5029C190.991 56.6885 191.216 56.835 191.47 56.9424C191.724 57.0498 191.997 57.1035 192.29 57.1035C192.583 57.1035 192.856 57.0498 193.11 56.9424C193.364 56.835 193.584 56.6885 193.77 56.5029C193.965 56.3076 194.116 56.083 194.224 55.8291C194.331 55.5654 194.385 55.2871 194.385 54.9941V39.9941H198.589V54.9941C198.589 55.2871 198.643 55.5654 198.75 55.8291C198.857 56.083 199.004 56.3076 199.189 56.5029C199.385 56.6885 199.609 56.835 199.863 56.9424C200.117 57.0498 200.391 57.1035 200.684 57.1035C200.977 57.1035 201.25 57.0498 201.504 56.9424C201.758 56.835 201.978 56.6885 202.163 56.5029C202.358 56.3076 202.51 56.083 202.617 55.8291C202.734 55.5654 202.793 55.2871 202.793 54.9941V39.9941H206.982V54.9941ZM223.11 52.6064V48.4023C223.11 47.8262 222.998 47.2842 222.773 46.7764C222.559 46.2588 222.261 45.8096 221.88 45.4287C221.499 45.0479 221.05 44.75 220.532 44.5352C220.024 44.3105 219.482 44.1982 218.906 44.1982C218.33 44.1982 217.783 44.3105 217.266 44.5352C216.758 44.75 216.313 45.0479 215.933 45.4287C215.552 45.8096 215.249 46.2588 215.024 46.7764C214.81 47.2842 214.702 47.8262 214.702 48.4023V52.6064H223.11ZM227.314 61H223.11V56.7959H214.702V61H210.513V48.4023C210.513 47.2402 210.732 46.1514 211.172 45.1357C211.611 44.1104 212.207 43.2168 212.959 42.4551C213.721 41.6934 214.609 41.0928 215.625 40.6533C216.65 40.2139 217.744 39.9941 218.906 39.9941C220.068 39.9941 221.157 40.2139 222.173 40.6533C223.198 41.0928 224.092 41.6934 224.854 42.4551C225.615 43.2168 226.216 44.1104 226.655 45.1357C227.095 46.1514 227.314 47.2402 227.314 48.4023V61ZM247.764 61H243.267L235.166 47.1719V61H230.962V39.9941H235.459L243.56 53.8369V39.9941H247.764V61Z" fill="#006EE9"/>
<defs>
<linearGradient id="paint0_linear_1009_1378" x1="201.5" y1="91.5" x2="127" y2="77" gradientUnits="userSpaceOnUse">
<stop offset="0.019257" stop-color="#002FD5"/>
<stop offset="1" stop-color="#6887F2"/>
</linearGradient>
</defs>
</svg>
